#N canvas 196 117 1340 727 12;
#X obj 761 30 r 1-Modo;
#X obj 805 54 r 2-Modo;
#X obj 848 78 r 3-Modo;
#X obj 892 103 r 4-Modo;
#X obj 762 132 join 4 @triggers -1;
#X obj 764 207 zl nth;
#X obj 818 158 r \$1-bing;
#X obj 825 183 r \$1-n4b;
#X obj 764 244 prepend read;
#X obj 534 129 join 4 @triggers -1;
#X obj 536 205 zl nth;
#X obj 590 155 r \$1-bing;
#X obj 597 180 r \$1-n4b;
#X obj 534 27 r 1-NotaChord;
#X obj 577 50 r 2-NotaChord;
#X obj 620 73 r 3-NotaChord;
#X obj 664 96 r 4-NotaChord;
#X obj 745 352 r 16b;
#X obj 853 354 inlet;
#X text 854 330 min;
#X text 806 329 max;
#X obj 749 572 outlet;
#X text 816 305 rand lim;
#X obj 242 123 join 4 @triggers -1;
#X obj 242 199 zl nth;
#X obj 298 149 r \$1-bing;
#X obj 305 174 r \$1-n4b;
#X obj 242 235 prepend read;
#X obj 242 21 r 1-ChordType;
#X obj 285 44 r 2-ChordType;
#X obj 328 67 r 3-ChordType;
#X obj 372 90 r 4-ChordType;
#X obj 964 46 r 4bars;
#X obj 962 133 s \$1-bing;
#X obj 993 109 s \$1-n4b;
#X obj 43 492 +;
#X obj 45 408 zl group 1;
#X obj 14 280 sel 0;
#X text 751 306 velocity;
#X obj 379 178 r 16b;
#X obj 437 179 inlet;
#X obj 495 180 inlet;
#X text 488 156 min;
#X text 440 155 max;
#X text 450 131 rand lim;
#X text 400 134 octave;
#X obj 379 307 * 12;
#X obj 43 536 +;
#X obj 43 578 +;
#X obj 578 443 inlet;
#X obj 14 239 *;
#X obj 89 260 <=;
#X obj 168 226 inlet;
#X obj 89 192 r 16b;
#X obj 89 226 random 101;
#X text 146 191 play chance;
#X obj 14 192 unjoin 2;
#X obj 71 90 inlet;
#X obj 9 12 r 16ths;
#X obj 68 14 r 4bars;
#X obj 68 60 * 16;
#X obj 14 125 +;
#X obj 43 615 outlet;
#X obj 177 610 outlet;
#X obj 104 90 r \$1-location;
#X obj 963 82 t b f;
#X obj 803 353 inlet;
#X obj 178 541 *;
#X obj 206 471 r unquarto;
#N canvas 0 22 450 278 (subpatch) 0;
#X text 0 0 plugdatainfo <?xml version="1.0" encoding="UTF-8"?> <plugdatainfo/>;
#X coords 0 1 100 -1 1 1 1;
#X restore 0 0 graph;
#X obj 14 157 coll @threaded 0;
#C restore;
#X obj 536 322 coll @threaded 0;
#C restore;
#X obj 45 360 coll @threaded 0;
#C restore;
#X obj 68 36 - 1;
#X obj 379 260 Randlim;
#X floatatom 362 564 5 0 100 0 - - - 12;
#X text 362 540 %;
#X text 452 543 min;
#X text 404 542 max;
#X text 487 562 octave;
#X floatatom 405 564 5 0 100 0 - - - 12;
#X floatatom 446 564 5 0 100 0 - - - 12;
#X text 484 612 velocity;
#X text 451 593 min;
#X text 403 592 max;
#X floatatom 404 614 5 0 100 0 - - - 12;
#X floatatom 445 614 5 0 100 0 - - - 12;
#X obj 745 454 Randlim;
#X floatatom 361 614 5 0 0 0 - - - 12;
#X text 362 587 st, f 4;
#X obj 578 633 r \$1-Cst;
#X obj 556 706 r \$1-CVma;
#X obj 634 706 r \$1-CVmi;
#X obj 519 415 r \$1-COmi;
#X obj 657 610 r \$1-COma;
#X obj 573 610 r \$1-Cperc;
#X text 1016 261 1 \,, f 5;
#X text 1099 261 1, f 5;
#X text 1215 261 0.5, f 5;
#X text 955 284 16ths index \, from 1 to 64 (to play 4 bars in 4/4), f 18;
#X text 1215 281 note duration:;
#X text 1215 296 1 = 1/4 \, 2 = 2/4 \, 4 = 4/4 \, 0.5 = 1/8 \, 0.25 = 1/16, f 36;
#X text 955 243 how to create txt file to load for generation :, f 41;
#X text 1091 305 1 = 1 \, 3 \, 5 \, 7, f 10;
#X text 1091 285 chord's positions, f 16;
#X text 1091 323 2 = 3 \, 5 \, 7 \, 1, f 11;
#X text 1091 340 3 = 5 \, 7 \, 1 \, 3, f 10;
#X text 1091 356 4 = 7 \, 1 \, 3 \, 5, f 10;
#X text 1116 50 play 7th chords based to metronome and scale's mode, f 49;
#X connect 0 0 4 0;
#X connect 1 0 4 1;
#X connect 2 0 4 2;
#X connect 3 0 4 3;
#X connect 4 0 5 0;
#X connect 5 0 8 0;
#X connect 6 0 5 0;
#X connect 7 0 5 1;
#X connect 8 0 71 0;
#X connect 9 0 10 0;
#X connect 10 0 71 0;
#X connect 11 0 10 0;
#X connect 12 0 10 1;
#X connect 13 0 9 0;
#X connect 14 0 9 1;
#X connect 15 0 9 2;
#X connect 16 0 9 3;
#X connect 17 0 87 0;
#X connect 18 0 86 0;
#X connect 23 0 24 0;
#X connect 24 0 27 0;
#X connect 25 0 24 0;
#X connect 26 0 24 1;
#X connect 27 0 72 0;
#X connect 28 0 23 0;
#X connect 29 0 23 1;
#X connect 30 0 23 2;
#X connect 31 0 23 3;
#X connect 32 0 65 0;
#X connect 35 0 47 0;
#X connect 36 0 35 0;
#X connect 37 1 72 0;
#X connect 39 0 74 0;
#X connect 40 0 80 0;
#X connect 41 0 81 0;
#X connect 46 0 47 1;
#X connect 47 0 48 0;
#X connect 48 0 62 0;
#X connect 49 0 88 0;
#X connect 50 0 37 0;
#X connect 51 0 50 1;
#X connect 52 0 75 0;
#X connect 53 0 54 0;
#X connect 54 0 51 0;
#X connect 56 0 50 0;
#X connect 56 1 67 0;
#X connect 57 0 70 0;
#X connect 58 0 61 0;
#X connect 59 0 73 0;
#X connect 60 0 61 1;
#X connect 61 0 70 0;
#X connect 64 0 70 0;
#X connect 65 0 33 0;
#X connect 65 1 34 0;
#X connect 66 0 85 0;
#X connect 67 0 63 0;
#X connect 68 0 67 1;
#X connect 70 0 56 0;
#X connect 71 0 35 1;
#X connect 72 0 36 0;
#X connect 73 0 60 0;
#X connect 74 0 46 0;
#X connect 75 0 51 1;
#X connect 80 0 74 1;
#X connect 81 0 74 2;
#X connect 85 0 87 1;
#X connect 86 0 87 2;
#X connect 87 0 21 0;
#X connect 88 0 48 1;
#X connect 90 0 88 0;
#X connect 91 0 85 0;
#X connect 92 0 86 0;
#X connect 93 0 81 0;
#X connect 94 0 80 0;
#X connect 95 0 75 0;
#X coords 0 0 1 1 184 130 1 354 518;
