#N canvas 1088 150 700 500 12;
#X declare -path cyclone;
#X obj 42 75 Timer_4.4;
#X obj 42 22 tgl 36 0 empty empty empty 17 7 0 10 #fcfcfc #000000 #000000 0 1;
#X floatatom 94 46 5 0 0 0 - - - 0;
#X obj 2 119 MelodyCore 1;
#X obj 155 119 MelodyCore 2;
#X obj 307 119 MelodyCore 3;
#X obj 460 119 MelodyCore 4;
#X obj 137 84 s 1-Mode;
#X floatatom 256 46 5 1 7 0 - - - 0;
#X obj 203 85 s 2-Mode;
#X obj 270 85 s 3-Mode;
#X obj 336 86 s 4-Mode;
#X obj 34 282 ChordGen_4b 1;
#X obj 34 433 makenote, f 17;
#X obj 99 561 noteout, f 13;
#X msg 34 251 read 5252.txt;
#X obj 538 22 declare -path cyclone;
#N canvas 0 22 450 278 (subpatch) 0;
#X text 0 0 plugdatainfo <?xml version="1.0" encoding="UTF-8"?> <plugdatainfo/>;
#X coords 0 1 100 -1 1 1 1;
#X restore 0 0 graph;
#X obj 270 287 Generation_4b 1;
#X obj 270 436 makenote, f 17;
#X obj 271 485 noteout, f 31;
#X msg 270 254 read Test.txt, f 18;
#X obj 513 287 Rythm_4b 1;
#X obj 521 407 makenote, f 17;
#X obj 524 444 noteout, f 30;
#X msg 513 251 read Drum_5.txt, f 20;
#X msg 814 319 \; 1-Cperc 100 \; 1-COma 4 \; 1-COmi 4 \; 1-CVma 127 \; 1-CVmi 127 \; 1-Cst 0, f 14;
#X obj 622 119 nbx 4 18 -1e+37 1e+37 0 0 empty empty empty 0 -8 0 10 #e4e4e4 #5a5a5a #5a5a5a 0 256;
#X msg 622 157 \; 1-Mst \$1 \; 1-Cst \$1, f 10;
#X floatatom 165 493 5 0 0 0 - - - 12;
#X obj 165 521 pgmout;
#X floatatom 207 493 5 0 0 0 - - - 12;
#X obj 217 602 openpanel;
#X obj 221 577 bng 18 250 50 0 empty empty empty 17 7 0 10 #dcdcdc #000000 #000000;
#X msg 217 628 open \$1;
#X obj 34 716 out~;
#X obj 34 561 pack;
#X obj 165 722 print info;
#X obj 34 659 sfont~, f 23;
#X floatatom 393 528 5 0 0 0 - - - 12;
#X obj 393 577 pgmout;
#X floatatom 435 530 5 0 0 0 - - - 12;
#X floatatom 627 514 5 0 0 0 - - - 12;
#X obj 627 563 pgmout;
#X floatatom 669 516 5 0 0 0 - - - 12;
#X msg 1105 319 \; bpm 80, f 11;
#X text 46 -1 toggle activate midi generation, f 30;
#X text 132 44 bpm, f 7;
#X text 305 54 Mode (for now all major's scale 7 modes), f 38;
#X obj 814 272 loadbang;
#X obj 94 23 r bpm;
#X text 657 255 read + file name in the folder load the txt file to read for pattern generation, f 18;
#X obj 34 207 loadbang;
#X obj 256 19 r Mode;
#X msg 914 319 \; 1-Mperc 100 \; 1-MO 4 \; 1-MVma 127 \; 1-MVmi 127 \; 1-Mst 0, f 14;
#X msg 1016 320 \; 1-Grade 6 \; 2-Grade 2 \; 3-Grade 5 \; 4-Grade 1 \; Mode 4, f 12;
#X obj 165 425 r pgm1;
#X obj 320 528 r pgm2;
#X obj 553 512 r pgm3;
#X obj 207 451 r ch1;
#X obj 478 521 r ch2;
#X obj 703 479 r ch3;
#X msg 901 504 ch1 1 \; ch2 2 \; ch3 3, f 8;
#X obj 814 466 loadbang;
#X text 993 235 create messages to create patterns and modify parameters, f 18;
#X text 670 118 semitone shift/ change root note, f 31;
#X text 207 659 Play your soundfonts \, load with bang, f 34;
#X obj 513 382 + 30;
#X msg 1188 319 \; 1-Rperc 100 \; 1-RVma 127 \; 1-RVmi 80, f 14;
#X msg 814 506 \; pgm1 12 \; pgm2 37 \; pgm3 118, f 11;
#X connect 1 0 0 0;
#X connect 2 0 0 1;
#X connect 8 0 7 0;
#X connect 8 0 9 0;
#X connect 8 0 10 0;
#X connect 8 0 11 0;
#X connect 12 0 13 0;
#X connect 12 1 13 2;
#X connect 12 2 13 1;
#X connect 13 0 14 0;
#X connect 13 0 36 0;
#X connect 13 1 14 1;
#X connect 13 1 36 1;
#X connect 15 0 12 0;
#X connect 18 0 19 0;
#X connect 18 1 19 2;
#X connect 18 2 19 1;
#X connect 19 0 20 0;
#X connect 19 1 20 1;
#X connect 21 0 18 0;
#X connect 22 0 67 0;
#X connect 22 1 23 2;
#X connect 22 2 23 1;
#X connect 23 0 24 0;
#X connect 23 1 24 1;
#X connect 25 0 22 0;
#X connect 27 0 28 0;
#X connect 29 0 30 0;
#X connect 31 0 30 1;
#X connect 31 0 14 2;
#X connect 32 0 34 0;
#X connect 33 0 32 0;
#X connect 34 0 38 0;
#X connect 36 0 38 0;
#X connect 38 0 35 0;
#X connect 38 1 35 1;
#X connect 38 2 37 0;
#X connect 39 0 40 0;
#X connect 41 0 40 1;
#X connect 41 0 20 2;
#X connect 42 0 43 0;
#X connect 44 0 43 1;
#X connect 44 0 24 2;
#X connect 49 0 26 0;
#X connect 49 0 54 0;
#X connect 49 0 55 0;
#X connect 49 0 45 0;
#X connect 49 0 68 0;
#X connect 50 0 2 0;
#X connect 52 0 15 0;
#X connect 52 0 21 0;
#X connect 52 0 25 0;
#X connect 53 0 8 0;
#X connect 56 0 29 0;
#X connect 57 0 39 0;
#X connect 58 0 42 0;
#X connect 59 0 31 0;
#X connect 60 0 41 0;
#X connect 61 0 44 0;
#X connect 63 0 69 0;
#X connect 63 0 62 0;
#X connect 67 0 23 0;
