#N canvas 827 239 527 327 12;
#N canvas 0 22 450 278 (subpatch) 0;
#X text 0 0 plugdatainfo <?xml version="1.0" encoding="UTF-8"?> <plugdatainfo/>;
#X coords 0 1 100 -1 1 1 1;
#X restore 0 0 graph;
#X obj 325 130 join 4 @triggers -1;
#X obj 327 205 zl nth;
#X obj 381 156 r \$1-bing;
#X obj 388 181 r \$1-n4b;
#X obj 327 242 prepend read;
#X obj 662 355 r 16b;
#X obj 770 357 inlet;
#X text 771 333 min;
#X text 723 332 max;
#X obj 666 575 outlet;
#X text 733 308 rand lim;
#X obj 806 69 r 4bars;
#X obj 804 156 s \$1-bing;
#X obj 835 132 s \$1-n4b;
#X obj 46 506 +;
#X obj 17 294 sel 0;
#X text 668 309 velocity;
#X obj 258 240 inlet;
#X text 251 216 min;
#X obj 96 506 * 12;
#X obj 46 550 +;
#X obj 46 592 +;
#X obj 381 353 inlet;
#X obj 17 253 *;
#X obj 92 274 <=;
#X obj 184 240 inlet;
#X obj 92 206 r 16b;
#X obj 92 240 random 101;
#X text 149 205 play chance;
#X obj 17 206 unjoin 2;
#X obj 74 104 inlet;
#X obj 12 26 r 16ths;
#X obj 71 28 r 4bars;
#X obj 71 74 * 16;
#X obj 17 139 +;
#X obj 46 629 outlet;
#X obj 180 624 outlet;
#X obj 133 104 r \$1-location;
#X obj 805 105 t b f;
#X obj 720 356 inlet;
#X obj 181 555 *;
#X obj 209 485 r unquarto;
#X obj 17 171 coll @threaded 0;
#C restore;
#X obj 46 373 coll @threaded 0;
#C restore;
#X obj 71 50 - 1;
#X floatatom 365 578 5 0 100 0 - - - 12;
#X text 365 554 %;
#X text 409 555 octave;
#X floatatom 409 578 5 0 100 0 - - - 12;
#X text 487 626 velocity;
#X text 454 607 min;
#X text 406 606 max;
#X floatatom 407 628 5 0 100 0 - - - 12;
#X floatatom 448 628 5 0 100 0 - - - 12;
#X obj 662 457 Randlim;
#X floatatom 364 628 5 0 0 0 - - - 12;
#X text 365 601 st, f 4;
#X obj 522 429 r \$1-MO;
#X obj 46 457 coll @threaded 0;
#C restore;
#X obj 324 28 r 1-Scala;
#X obj 368 52 r 2-Scala;
#X obj 411 76 r 3-Scala;
#X obj 455 101 r 4-Scala;
#X obj 538 128 join 4 @triggers -1;
#X obj 540 203 zl nth;
#X obj 594 154 r \$1-bing;
#X obj 601 179 r \$1-n4b;
#X obj 540 240 prepend read;
#X obj 537 26 r 1-ModeMap;
#X obj 581 50 r 2-ModeMap;
#X obj 624 74 r 3-ModeMap;
#X obj 668 99 r 4-ModeMap;
#X obj 576 624 r \$1-Mperc;
#X obj 581 647 r \$1-Mst;
#X obj 559 720 r \$1-MVma;
#X obj 637 720 r \$1-MVmi;
#X text 983 86 1 \,, f 5;
#X text 1066 86 1, f 5;
#X text 1182 86 0.5, f 5;
#X text 922 109 16ths index \, from 1 to 64 (to play 4 bars in 4/4), f 18;
#X text 1066 109 note grade to play in the chord's mode \, grade from 1 to 14, f 14;
#X text 1182 106 note duration:;
#X text 1182 121 1 = 1/4 \, 2 = 2/4 \, 4 = 4/4 \, 0.5 = 1/8 \, 0.25 = 1/16, f 36;
#X text 922 68 how to create txt file to load for generation :, f 41;
#X connect 1 0 2 0;
#X connect 2 0 5 0;
#X connect 3 0 2 0;
#X connect 4 0 2 1;
#X connect 5 0 44 0;
#X connect 6 0 55 0;
#X connect 7 0 54 0;
#X connect 12 0 39 0;
#X connect 15 0 21 0;
#X connect 16 1 44 0;
#X connect 18 0 49 0;
#X connect 20 0 21 1;
#X connect 21 0 22 0;
#X connect 22 0 36 0;
#X connect 23 0 56 0;
#X connect 24 0 16 0;
#X connect 25 0 24 1;
#X connect 26 0 46 0;
#X connect 27 0 28 0;
#X connect 28 0 25 0;
#X connect 30 0 24 0;
#X connect 30 1 41 0;
#X connect 31 0 43 0;
#X connect 32 0 35 0;
#X connect 33 0 45 0;
#X connect 34 0 35 1;
#X connect 35 0 43 0;
#X connect 38 0 43 0;
#X connect 39 0 13 0;
#X connect 39 1 14 0;
#X connect 40 0 53 0;
#X connect 41 0 37 0;
#X connect 42 0 41 1;
#X connect 43 0 30 0;
#X connect 44 0 59 0;
#X connect 45 0 34 0;
#X connect 46 0 25 1;
#X connect 49 0 20 0;
#X connect 53 0 55 1;
#X connect 54 0 55 2;
#X connect 55 0 10 0;
#X connect 56 0 22 1;
#X connect 58 0 49 0;
#X connect 59 0 15 0;
#X connect 60 0 1 0;
#X connect 61 0 1 1;
#X connect 62 0 1 2;
#X connect 63 0 1 3;
#X connect 64 0 65 0;
#X connect 65 0 68 0;
#X connect 66 0 65 0;
#X connect 67 0 65 1;
#X connect 68 0 59 0;
#X connect 69 0 64 0;
#X connect 70 0 64 1;
#X connect 71 0 64 2;
#X connect 72 0 64 3;
#X connect 73 0 46 0;
#X connect 74 0 56 0;
#X connect 75 0 53 0;
#X connect 76 0 54 0;
#X coords 0 0 1 1 211 128 1 354 532;
