#N canvas 196 146 879 496 12;
#X declare -path cyclone;
#X floatatom 2 28 5 1 7 0 - - - 0;
#X floatatom 3 52 5 0 6 0 - - - 0;
#X text 43 30 Grado;
#X text 45 53 Modo;
#X obj 30 118 s \$1-NotaChord;
#X msg 193 100 set \$1;
#X msg 81 52 Lidio;
#X obj 9 235 s \$1-Scala;
#X obj 408 152 s \$1-ModeMap;
#X obj 135 287 i;
#X obj 135 219 r \$1-NotaChord;
#X obj 228 21 r \$1-Grade;
#X obj 318 24 r \$1-Mode;
#X obj 259 118 sprintf %s_Chord.txt;
#X obj 542 120 sprintf %s_SW.txt;
#X obj 542 153 s \$1-Modo;
#X obj 408 119 sprintf %s_Map.txt;
#X obj 270 418 prepend read;
#X obj 270 379 sprintf %s.txt;
#X obj 379 421 s \$1-ChordType;
#X obj 470 27 declare -path cyclone;
#X obj 425 215 prepend set;
#X msg 425 250 read Lidio_Chord.txt;
#X obj 259 157 prepend read;
#N canvas 0 22 450 278 (subpatch) 0;
#X text 0 0 plugdatainfo <?xml version="1.0" encoding="UTF-8"?> <plugdatainfo/>;
#X coords 0 1 100 -1 1 1 1;
#X restore 0 0 graph;
#X obj 9 158 coll ModSelect.txt @threaded 0;
#C restore;
#X obj 270 334 coll @threaded 0;
#C restore;
#X obj 270 453 coll @threaded 0;
#C restore;
#X obj 260 67 coll ModSelect.txt @threaded 0;
#C restore;
#X obj 709 207 coll Ionico.txt;
#C restore;
#X obj 710 230 coll Dorico.txt;
#C restore;
#X obj 710 253 coll Frigio.txt;
#C restore;
#X obj 710 277 coll Lidio.txt;
#C restore;
#X obj 711 300 coll Misolidio.txt;
#C restore;
#X obj 711 323 coll Eolio.txt;
#C restore;
#X obj 711 347 coll Locrio.txt;
#C restore;
#X obj 864 28 coll Ionico_Chord.txt;
#C restore;
#X obj 865 51 coll Dorico_Chord.txt;
#C restore;
#X obj 865 74 coll Frigio_Chord.txt;
#C restore;
#X obj 865 98 coll Lidio_Chord.txt;
#C restore;
#X obj 866 121 coll Misolidio_Chord.txt;
#C restore;
#X obj 866 144 coll Eolio_Chord.txt;
#C restore;
#X obj 866 168 coll Locrio_Chord.txt;
#C restore;
#X obj 864 207 coll Ionico_SW.txt;
#C restore;
#X obj 865 230 coll Dorico_SW.txt;
#C restore;
#X obj 865 253 coll Frigio_SW.txt;
#C restore;
#X obj 865 277 coll Lidio_SW.txt;
#C restore;
#X obj 863 300 coll Misolidio_SW.txt;
#C restore;
#X obj 866 322 coll Eolio_SW.txt;
#C restore;
#X obj 865 347 coll Locrio_SW.txt;
#C restore;
#X obj 707 27 coll Ionico_Map.txt;
#C restore;
#X obj 708 50 coll Dorico_Map.txt;
#C restore;
#X obj 708 73 coll Frigio_Map.txt;
#C restore;
#X obj 708 97 coll Lidio_Map.txt;
#C restore;
#X obj 709 120 coll Misolidio_Map.txt;
#C restore;
#X obj 709 143 coll Eolio_Map.txt;
#C restore;
#X obj 709 166 coll Locrio_Map.txt;
#C restore;
#X obj 715 382 coll M7a.txt;
#C restore;
#X obj 715 407 coll 7ab5.txt;
#C restore;
#X obj 716 432 coll mi7a.txt;
#C restore;
#X obj 716 457 coll 7a.txt;
#C restore;
#X obj 228 250 t b;
#X obj 9 195 sprintf %s.txt;
#X connect 0 0 4 0;
#X connect 0 0 25 0;
#X connect 1 0 28 0;
#X connect 5 0 6 0;
#X connect 9 0 26 0;
#X connect 10 0 9 0;
#X connect 11 0 0 0;
#X connect 12 0 1 0;
#X connect 13 0 23 0;
#X connect 14 0 15 0;
#X connect 16 0 8 0;
#X connect 17 0 27 0;
#X connect 18 0 17 0;
#X connect 18 0 19 0;
#X connect 21 0 22 0;
#X connect 23 0 21 0;
#X connect 23 0 26 0;
#X connect 23 0 61 0;
#X connect 25 0 62 0;
#X connect 26 0 18 0;
#X connect 28 0 5 0;
#X connect 28 0 13 0;
#X connect 28 0 14 0;
#X connect 28 0 16 0;
#X connect 61 0 9 0;
#X connect 62 0 7 0;
#X coords 0 -1 1 1 150 75 1 0 0;
