#N canvas 827 239 527 327 12;
#N canvas 0 22 450 278 (subpatch) 0;
#X text 0 0 plugdatainfo <?xml version="1.0" encoding="UTF-8"?> <plugdatainfo/>;
#X coords 0 1 100 -1 1 1 1;
#X restore 0 0 graph;
#X obj 149 52 inlet;
#X obj 207 53 inlet;
#X obj 149 112 -;
#X text 200 29 min;
#X text 152 28 max;
#X obj 92 192 random;
#X obj 149 139 + 1;
#X obj 92 258 +;
#X obj 207 81 t b f;
#X obj 92 52 inlet;
#X obj 92 299 outlet;
#X connect 1 0 3 0;
#X connect 2 0 9 0;
#X connect 3 0 7 0;
#X connect 3 0 7 1;
#X connect 6 0 8 0;
#X connect 7 0 6 1;
#X connect 8 0 11 0;
#X connect 9 0 3 0;
#X connect 9 1 3 1;
#X connect 9 1 8 1;
#X connect 10 0 6 0;
