#N canvas 827 239 527 327 12;
#N canvas 0 22 450 278 (subpatch) 0;
#X text 0 0 plugdatainfo <?xml version="1.0" encoding="UTF-8"?> <plugdatainfo/>;
#X coords 0 1 100 -1 1 1 1;
#X restore 0 0 graph;
#X obj 443 275 r 16b;
#X obj 551 277 inlet;
#X text 552 253 min;
#X text 504 252 max;
#X obj 447 495 outlet;
#X text 514 228 rand lim;
#X obj 24 283 sel 0;
#X text 449 229 velocity;
#X obj 24 254 *;
#X obj 99 263 <=;
#X obj 204 229 inlet;
#X obj 99 195 r 16b;
#X obj 99 229 random 101;
#X text 156 194 play chance;
#X obj 102 91 inlet;
#X obj 19 15 r 16ths;
#X obj 99 15 r 4bars;
#X obj 99 61 * 16;
#X obj 24 128 +;
#X obj 59 460 outlet;
#X obj 193 455 outlet;
#X obj 166 91 r \$1-location;
#X obj 501 276 inlet;
#X obj 194 386 *;
#X obj 222 316 r unquarto;
#X obj 24 163 coll @threaded 0;
#C restore;
#X obj 99 37 - 1;
#X floatatom 293 265 5 0 100 0 - - - 12;
#X text 293 241 %;
#X text 330 224 velocity;
#X text 378 244 min;
#X text 330 243 max;
#X floatatom 335 263 5 0 100 0 - - - 12;
#X floatatom 372 265 5 0 100 0 - - - 12;
#X obj 443 377 Randlim;
#X obj 301 91 r \$1-Rperc;
#X obj 427 91 r \$1-RVma;
#X obj 505 91 r \$1-RVmi;
#X obj 24 204 unpack;
#X text 458 24 Play rythms, f 13;
#X text 658 55 1 \,, f 5;
#X text 741 55 1, f 5;
#X text 824 55 0.5, f 5;
#X text 597 78 16ths index \, from 1 to 64 (to play 4 bars in 4/4), f 18;
#X text 824 75 note duration:;
#X text 824 90 1 = 1/4 \, 2 = 2/4 \, 4 = 4/4 \, 0.5 = 1/8 \, 0.25 = 1/16, f 36;
#X text 597 37 how to create txt file to load for generation :, f 41;
#X text 730 81 1=play note \, 0= dont play, f 13;
#X connect 1 0 35 0;
#X connect 2 0 34 0;
#X connect 7 1 20 0;
#X connect 9 0 7 0;
#X connect 10 0 9 1;
#X connect 11 0 28 0;
#X connect 12 0 13 0;
#X connect 13 0 10 0;
#X connect 15 0 26 0;
#X connect 16 0 19 0;
#X connect 17 0 27 0;
#X connect 18 0 19 1;
#X connect 19 0 26 0;
#X connect 22 0 26 0;
#X connect 23 0 33 0;
#X connect 24 0 21 0;
#X connect 25 0 24 1;
#X connect 26 0 39 0;
#X connect 27 0 18 0;
#X connect 28 0 10 1;
#X connect 33 0 35 1;
#X connect 34 0 35 2;
#X connect 35 0 5 0;
#X connect 36 0 28 0;
#X connect 37 0 33 0;
#X connect 38 0 34 0;
#X connect 39 0 9 0;
#X connect 39 1 24 0;
#X coords 0 0 1 1 140 87 1 280 207;
