#N canvas 288 185 470 606 12;
#X declare -path cyclone;
#X obj 15 44 inlet;
#X obj 110 46 inlet;
#X obj 15 207 metro;
#X obj 72 118 /;
#X obj 72 46 i 60;
#X obj 72 14 loadbang;
#X obj 72 179 / 4;
#X obj 28 93 s off;
#X obj 103 180 s unquarto;
#X obj 72 148 * 1000;
#X obj 106 301 % 4;
#X obj 59 301 % 2;
#X obj 160 303 % 16;
#X obj 106 333 sel 1;
#X obj 304 337 sel 1;
#X obj 59 333 sel 1;
#X obj 83 214 r off;
#X obj 369 336 r off;
#X obj 172 393 r off;
#X obj 125 451 r off;
#X obj 16 523 s 16ths;
#X obj 72 524 s 8ths;
#X obj 120 524 s 4ths;
#X obj 169 524 s 4bars;
#X obj 225 524 s bars;
#X obj 160 335 sel 1;
#X obj 225 334 r off;
#X obj 236 261 s 16b;
#X obj 109 88 t b f;
#X obj 300 102 declare -path cyclone;
#N canvas 0 22 450 278 (subpatch) 0;
#X text 0 0 plugdatainfo <?xml version="1.0" encoding="UTF-8"?> <plugdatainfo/>;
#X coords 0 1 100 -1 1 1 1;
#X restore 0 0 graph;
#X obj 107 423 counter 1 4;
#X obj 160 367 counter 1 4;
#X obj 304 369 counter 1 8;
#X obj 60 486 counter 1 8;
#X obj 15 245 counter 1 16;
#X connect 0 0 2 0;
#X connect 0 0 7 0;
#X connect 1 0 28 0;
#X connect 2 0 27 0;
#X connect 2 0 35 0;
#X connect 3 0 9 0;
#X connect 4 0 3 0;
#X connect 5 0 4 0;
#X connect 6 0 2 1;
#X connect 9 0 6 0;
#X connect 9 0 8 0;
#X connect 10 0 13 0;
#X connect 11 0 15 0;
#X connect 12 0 14 0;
#X connect 12 0 25 0;
#X connect 13 0 31 0;
#X connect 14 0 33 0;
#X connect 15 0 34 0;
#X connect 16 0 35 2;
#X connect 17 0 33 2;
#X connect 18 0 31 2;
#X connect 19 0 34 2;
#X connect 25 0 32 0;
#X connect 26 0 32 2;
#X connect 28 0 3 0;
#X connect 28 1 3 1;
#X connect 31 0 22 0;
#X connect 32 0 23 0;
#X connect 33 0 24 0;
#X connect 34 0 21 0;
#X connect 35 0 11 0;
#X connect 35 0 10 0;
#X connect 35 0 12 0;
#X connect 35 0 20 0;
